<svg width="63" height="50" fill="none" xmlns="http://www.w3.org/2000/svg"><path d="M5.777 44.79v5.136H3.622l-2.257-3.8-.048-.121c-.04-.106-.076-.158-.108-.158l-.018.035c0 .034.02.12.06.26.044.133.066.215.066.243v3.541H0v-5.135h2.155l2.251 3.8c.024.066.044.12.06.157.036.082.068.123.096.123.012-.02.018-.034.018-.044 0-.023-.02-.102-.06-.237a1.25 1.25 0 01-.06-.258V44.79h1.317zm6.905 2.572c0 1.245-.126 1.99-.377 2.234-.276.268-1.094.402-2.455.402-.998 0-1.652-.043-1.963-.13-.392-.11-.64-.349-.743-.717-.08-.283-.12-.879-.12-1.789 0-1.25.124-1.997.372-2.24.271-.269 1.09-.403 2.454-.403 1.361 0 2.177.132 2.449.395.255.249.383.998.383 2.248zm-4.34 0c0 .656.061 1.04.185 1.15.128.105.569.157 1.323.157.755 0 1.196-.055 1.323-.165.128-.11.192-.49.192-1.142 0-.656-.064-1.039-.192-1.15-.123-.11-.563-.164-1.317-.164s-1.195.055-1.323.165c-.128.11-.191.493-.191 1.15zm6.509-2.572l1.617 3.808h.114l1.622-3.807h1.485l-2.162 5.135h-1.999l-2.167-5.135h1.49zm21.123 1.861h-1.317c0-.297-.064-.472-.192-.524-.123-.053-.549-.08-1.275-.08-.73 0-1.157.056-1.281.166-.124.11-.186.495-.186 1.156 0 .632.064 1.008.192 1.128.132.115.559.172 1.281.172.73 0 1.156-.021 1.275-.064.124-.043.186-.199.186-.467h-1.628v-1.15h2.945c0 1.5-.118 2.376-.353 2.63-.232.253-1.04.38-2.425.38-1.345 0-2.147-.124-2.406-.373-.256-.254-.384-1.008-.384-2.263 0-1.25.126-1.999.378-2.248.267-.263 1.071-.395 2.412-.395 1.285 0 2.062.088 2.329.266.3.196.449.752.449 1.666zm7.986-1.861h2.366l1.125 2.888c.008.02.02.127.036.323.02.197.042.295.066.295.02 0 .038-.093.054-.28.02-.192.036-.304.048-.338l1.125-2.887h2.245v5.135h-1.317v-3.584c0-.057.01-.131.03-.222.02-.091.03-.154.03-.187 0-.029-.012-.043-.036-.043-.016 0-.034.024-.054.072-.02.047-.042.102-.066.165l-1.52 3.8h-1.078l-1.64-3.815a2.097 2.097 0 01-.054-.143c-.028-.063-.05-.094-.066-.094-.024 0-.036.02-.036.058 0 .024.01.088.03.194.02.1.03.167.03.2v3.6h-1.317V44.79zm8.186 5.136v-5.135h4.61v1.242h-3.293v.711h3.143v1.236h-3.143v.704h3.293v1.242h-4.61zm8.286-1.17c.63 0 .995-.012 1.095-.036.104-.029.156-.122.156-.28 0-.178-.062-.292-.186-.345-.16-.067-.514-.1-1.065-.1-1.094 0-1.786-.096-2.078-.288-.287-.192-.43-.666-.43-1.422 0-.7.187-1.147.562-1.343.287-.149.926-.223 1.916-.223 1.073 0 1.744.084 2.011.251.332.206.497.716.497 1.53h-1.317c0-.268-.052-.426-.156-.474-.1-.048-.442-.072-1.03-.072-.578 0-.917.015-1.017.043-.1.03-.15.125-.15.288 0 .172.072.287.216.345.147.052.473.078.976.078 1.093 0 1.794.104 2.101.31.311.2.467.675.467 1.422 0 .684-.176 1.122-.527 1.314-.303.163-.986.244-2.047.244-1.138 0-1.84-.088-2.108-.266-.303-.2-.455-.718-.455-1.551h1.318c0 .283.053.45.161.503.108.048.471.072 1.09.072z" fill="#fff"/><path fill-rule="evenodd" clip-rule="evenodd" d="M41.115 44.79H38.87l-2.126 5.136h1.539l.407-.854.491-1.33.707-1.802h.209l.706 1.803.497 1.329.407.854h1.539l-2.131-5.135zm-16.791 0h-2.245l-2.125 5.136h1.538l.407-.854.491-1.33.707-1.802h.21l.706 1.803.496 1.329.407.854h1.54l-2.132-5.135z" fill="#fff"/><path d="M40.038 8.57H22.786a.594.594 0 00-.503.256c-.433.65-1.478 2.526-1.478 5.47s1.045 4.82 1.478 5.47a.594.594 0 00.503.257h16.346c.181 0 .344.108.4.28.179.533.528 1.797.528 3.489s-.35 2.956-.527 3.49a.416.416 0 01-.401.28H19.688c-3.017 0-5.728-1.783-6.3-4.731-.414-2.129-.761-4.959-.761-8.457 0-3.9.432-7.007.905-9.24.552-2.603 2.85-4.287 5.514-4.498C22.67.349 27.88.002 31.848.002c2.369 0 5.336.146 8.19.335V8.57zm2.157 0h8.02V7.446c0-3.556-2.699-6.535-6.259-6.821C43.388.58 42.8.534 42.195.489v8.08z" fill="#97D600"/><path d="M43.951 10.381H23.96a.419.419 0 00-.402.281c-.184.547-.55 1.851-.55 3.545 0 1.693.366 2.997.55 3.544.057.171.22.28.402.28h16.19c.187 0 .365.078.476.228.45.604 1.57 2.418 1.57 5.477s-1.12 4.873-1.57 5.477a.585.585 0 01-.477.227H12.83v1.14c0 3.672 2.714 6.767 6.392 7.046 3.005.227 6.89.427 11.257.427 4.587 0 8.522-.129 11.453-.27 3.691-.177 7.1-1.8 7.847-5.403.396-1.909.685-4.508.685-8.029 0-5.177-.605-8.553-1.256-10.687-.685-2.247-2.897-3.283-5.256-3.283z" fill="#fff"/></svg>