<?xml version="1.0" encoding="UTF-8"?>
<!DOCTYPE svg PUBLIC "-//W3C//DTD SVG 1.1//EN" "http://www.w3.org/Graphics/SVG/1.1/DTD/svg11.dtd">
<!-- Creator: CorelDRAW 2020 (64-Bit) -->
<svg xmlns="http://www.w3.org/2000/svg" xml:space="preserve" width="110mm" height="93mm" version="1.1" style="shape-rendering:geometricPrecision; text-rendering:geometricPrecision; image-rendering:optimizeQuality; fill-rule:evenodd; clip-rule:evenodd"
viewBox="0 0 11000 9300"
 xmlns:xlink="http://www.w3.org/1999/xlink"
 xmlns:xodm="http://www.corel.com/coreldraw/odm/2003">
 <defs>
  <style type="text/css">
   <![CDATA[
    .fil0 {fill:#255490;fill-rule:nonzero}
   ]]>
  </style>
 </defs>
 <g id="Слой_x0020_1">
  <metadata id="CorelCorpID_0Corel-Layer"/>
  <path class="fil0" d="M3459.9 1791.69l91.5 0 151.1 259.04 -242.6 0c-21.67,0 -41.4,8.8 -55.62,22.9 -14.1,14.22 -22.87,33.98 -22.87,55.62l0 2755.55 -259.03 163.25 0 -2918.8c0,-92.62 37.95,-176.86 99.01,-237.98l0.53 -0.53c61.12,-61.06 145.36,-99.05 237.98,-99.05zm-3289.17 6373.78c-20.9,0 -32.04,9.76 -32.04,30.66l0 799.45c0,112.81 41.77,144.85 126.75,144.85l119.76 0c98.89,0 119.79,-16.71 160.17,-82.18l416.44 -679.66c2.8,-6.99 9.76,-9.76 18.1,-9.76l12.56 0c6.95,0 11.14,4.19 11.14,13.91l0 727.03c0,20.9 9.73,30.66 30.63,30.66l150.41 0c20.9,0 32.04,-9.76 32.04,-30.66l0 -799.45c0,-114.19 -40.38,-144.85 -125.33,-144.85l-122.59 0c-100.28,0 -122.53,15.33 -161.53,80.8l-412.28 681.07c-4.19,6.96 -11.15,9.73 -19.49,9.73l-12.55 0c-6.96,0 -11.15,-4.15 -11.15,-13.91l0 -727.03c0,-20.9 -9.72,-30.66 -30.62,-30.66l-150.42 0zm1201.95 0c-20.9,0 -32.04,9.76 -32.04,30.66l0 136.47c0,20.9 11.14,32.04 32.04,32.04l437.34 0 0 745.13c0,20.9 9.76,30.66 30.63,30.66l151.83 0c20.9,0 30.62,-9.76 30.62,-30.66l0 -745.13 437.34 0c20.9,0 32.04,-11.14 32.04,-32.04l0 -136.47c0,-20.9 -11.14,-30.66 -32.04,-30.66l-1087.76 0zm2331.51 974.96c281.35,0 389.97,-100.28 389.97,-367.69l0 -239.58c0,-267.41 -108.62,-367.69 -389.97,-367.69l-612.81 0c-20.9,0 -32.04,9.76 -32.04,30.66l0 132.29c0,20.9 11.14,30.65 32.04,30.65l608.66 0c144.84,0 185.22,43.19 185.22,189.42l0 23.67 -557.13 0c-20.86,0 -30.62,9.75 -30.62,30.65l0 110.04c0,20.9 9.76,30.62 30.62,30.62l557.13 0 0 13.94c0,146.24 -40.38,189.42 -185.22,189.42l-608.66 0c-20.9,0 -32.04,9.76 -32.04,30.65l0 132.29c0,20.9 11.14,30.66 32.04,30.66l612.81 0zm594.71 -974.96c-20.87,0 -32.01,9.76 -32.01,30.66l0 913.64c0,20.9 11.14,30.66 32.01,30.66l150.45 0c20.87,0 30.63,-9.76 30.63,-30.66l0 -370.45 651.83 0 0 370.45c0,20.9 9.73,30.66 30.63,30.66l150.42 0c20.89,0 32.04,-9.76 32.04,-30.66l0 -913.64c0,-20.9 -11.15,-30.66 -32.04,-30.66l-150.42 0c-20.9,0 -30.63,9.76 -30.63,30.66l0 362.11 -651.83 0 0 -362.11c0,-20.9 -9.76,-30.66 -30.63,-30.66l-150.45 0zm1261.88 0c-20.9,0 -32.04,9.76 -32.04,30.66l0 799.45c0,112.81 41.77,144.85 126.75,144.85l119.76 0c98.89,0 119.79,-16.71 160.17,-82.18l416.44 -679.66c2.8,-6.99 9.76,-9.76 18.1,-9.76l12.56 0c6.95,0 11.14,4.19 11.14,13.91l0 727.03c0,20.9 9.73,30.66 30.66,30.66l150.38 0c20.9,0 32.04,-9.76 32.04,-30.66l0 -799.45c0,-114.19 -40.38,-144.85 -125.33,-144.85l-122.59 0c-100.25,0 -122.53,15.33 -161.53,80.8l-412.28 681.07c-4.19,6.96 -11.15,9.73 -19.49,9.73l-12.56 0c-6.95,0 -11.14,-4.15 -11.14,-13.91l0 -727.03c0,-20.9 -9.72,-30.66 -30.62,-30.66l-150.42 0zm1617.01 0c-281.35,0 -389.97,100.28 -389.97,367.69l0 576.61c0,20.9 11.14,30.66 32.04,30.66l150.41 0c20.87,0 30.63,-9.76 30.63,-30.66l0 -555.71c0,-147.62 41.8,-189.42 185.26,-189.42l564.05 0c20.9,0 30.66,-11.14 30.66,-32.04l0 -136.47c0,-20.9 -9.76,-30.66 -30.66,-30.66l-572.42 0zm852.39 0c-98.89,0 -123.98,39 -123.98,144.85l0 799.45c0,20.9 11.14,30.66 32.04,30.66l142.08 0c20.87,0 30.62,-9.76 30.62,-30.66l0 -727.03c0,-9.72 2.81,-13.91 11.15,-13.91l12.52 0c9.76,0 15.33,2.77 18.13,11.14l281.35 623.95c45.93,100.28 84.95,136.51 178.24,136.51l66.86 0c93.32,0 132.31,-36.23 178.3,-136.51l281.32 -623.95c2.8,-8.37 8.37,-11.14 18.13,-11.14l12.52 0c8.35,0 11.15,4.19 11.15,13.91l0 727.03c0,20.9 9.75,30.66 30.62,30.66l142.08 0c20.9,0 32.04,-9.76 32.04,-30.66l0 -799.45c0,-105.85 -25.09,-144.85 -122.56,-144.85l-149.04 0c-82.18,0 -110.03,18.1 -147.64,105.88l-289.69 668.52c-4.19,9.76 -9.76,12.53 -19.52,12.53l-16.71 0c-9.73,0 -15.3,-2.77 -19.48,-12.53l-289.7 -668.52c-37.61,-87.78 -65.46,-105.88 -149.03,-105.88l-151.8 0zm2075.21 0c-58.48,0 -100.28,22.29 -146.23,105.88l-456.82 837.04c-9.76,18.1 -5.57,32.04 18.1,32.04l181.04 0c16.71,0 25.08,-4.19 32.04,-18.1l96.12 -179.69 654.61 0 98.89 179.69c6.93,13.91 13.92,18.1 32.01,18.1l176.89 0c22.29,0 26.47,-13.94 16.71,-32.04l-461 -837.04c-45.96,-83.59 -89.14,-105.88 -160.18,-105.88l-82.18 0zm30.66 207.55c4.18,-6.99 8.34,-9.76 15.33,-9.76l8.34 0c6.95,0 11.14,2.77 15.33,9.76l221.45 408.06 -479.14 0 218.69 -408.06zm-7466.09 -2595.2c39.85,-446.2 987.82,-722.78 1418.11,-1233.16 430.23,-510.38 342.78,-1254.61 508.31,-1171.85 306.35,491.45 601.58,491.76 833.04,733.84 420.5,439.77 870.86,1350.15 1586.93,2173.02 234.94,270.06 268.09,697.76 241.86,1089.83 -39.3,588.28 -126.59,300.21 -372.58,-113.52 -2737.73,-4605.34 -2522.65,-1715.93 -4215.67,-1478.16zm1733.78 -2953.09c-141.13,-364.98 -359.84,-671.2 -629.9,-1013.12 -236.04,-298.83 -139.98,-240.29 184.15,28.38 873.82,724.32 1283.06,1267.05 1655.11,1545.75 705.37,528.54 1131.04,1353.32 1329.75,2175.31 90.68,375.07 231.7,599.6 -128.1,185.84 -679.26,-781.08 -1095.3,-1616.91 -1482.5,-2039.02 -235.16,-256.36 -536.45,-337.37 -928.51,-883.14zm-946.98 -2679.22c633.03,714.78 454.94,1211.4 1720.79,2306.67 263.1,227.61 425.86,487.66 624.2,608.59 545.8,332.54 1097.76,-439.43 1211.77,-35.76 -179.6,493.45 -238.11,964.12 -199.05,1417.06 -435.21,-612.19 -708.38,-984.92 -963.6,-1135.37 -442.11,-260.3 -903.33,-941.84 -1544.49,-1374.59 -845.1,-570.61 -847.13,-1227.96 -849.62,-1786.6zm-75.35 5539.54l0 376.31c0,21.67 8.77,41.43 22.87,55.62 14.22,14.09 33.95,22.9 55.62,22.9l2511.32 0 175.41 259.03 -2686.73 0c-92.62,0 -176.86,-37.98 -237.98,-99.05l-0.53 -0.52c-61.06,-61.13 -99.01,-145.4 -99.01,-237.98l0 -237.68 259.03 -138.63zm3786.5 454.83l387.07 0c21.64,0 41.37,-8.81 55.59,-22.9 14.1,-14.19 22.87,-33.95 22.87,-55.62l0 -3932.11c0,-21.64 -8.77,-41.4 -22.87,-55.62 -14.22,-14.1 -33.95,-22.9 -55.59,-22.9l-2514.3 0 -246.08 -259.04 2760.38 0c92.59,0 176.83,37.99 237.96,99.05l0.52 0.53c61.06,61.12 99.05,145.36 99.05,237.98l0 3932.11c0,92.58 -37.99,176.85 -99.05,237.98l-0.52 0.52c-61.13,61.07 -145.37,99.05 -237.96,99.05l-218.13 0 -168.94 -259.03z"/>
 </g>
</svg>
